<svg width="15" height="21" viewBox="0 0 15 21" fill="none" xmlns="http://www.w3.org/2000/svg">
<path d="M2.09668 0.177734H12.0967C12.6271 0.177734 13.1358 0.388448 13.5109 0.763521C13.886 1.13859 14.0967 1.6473 14.0967 2.17773V18.1777C14.0967 18.7082 13.886 19.2169 13.5109 19.5919C13.1358 19.967 12.6271 20.1777 12.0967 20.1777H2.09668C1.56625 20.1777 1.05754 19.967 0.682466 19.5919C0.307393 19.2169 0.0966797 18.7082 0.0966797 18.1777V2.17773C0.0966797 1.6473 0.307393 1.13859 0.682466 0.763521C1.05754 0.388448 1.56625 0.177734 2.09668 0.177734ZM2.09668 2.17773V6.17773H12.0967V2.17773H2.09668ZM2.09668 8.17773V10.1777H4.09668V8.17773H2.09668ZM6.09668 8.17773V10.1777H8.09668V8.17773H6.09668ZM10.0967 8.17773V10.1777H12.0967V8.17773H10.0967ZM2.09668 12.1777V14.1777H4.09668V12.1777H2.09668ZM6.09668 12.1777V14.1777H8.09668V12.1777H6.09668ZM10.0967 12.1777V14.1777H12.0967V12.1777H10.0967ZM2.09668 16.1777V18.1777H4.09668V16.1777H2.09668ZM6.09668 16.1777V18.1777H8.09668V16.1777H6.09668ZM10.0967 16.1777V18.1777H12.0967V16.1777H10.0967Z" fill="white"/>
</svg>
