<svg width="19" height="19" viewBox="0 0 19 19" fill="none" xmlns="http://www.w3.org/2000/svg">
<path d="M16.9304 0.416748H2.93042C1.83042 0.416748 0.93042 1.31675 0.93042 2.41675V16.4167C0.93042 17.5167 1.83042 18.4167 2.93042 18.4167H16.9304C18.0304 18.4167 18.9304 17.5167 18.9304 16.4167V2.41675C18.9304 1.31675 18.0304 0.416748 16.9304 0.416748ZM4.93042 4.41675H6.93042V6.41675H4.93042V4.41675ZM4.93042 8.41675H6.93042V10.4167H4.93042V8.41675ZM4.93042 12.4167H6.93042V14.4167H4.93042V12.4167ZM14.9304 14.4167H8.93042V12.4167H14.9304V14.4167ZM14.9304 10.4167H8.93042V8.41675H14.9304V10.4167ZM14.9304 6.41675H8.93042V4.41675H14.9304V6.41675Z" fill="white"/>
</svg>
