<svg width="21" height="20" viewBox="0 0 21 20" fill="none" xmlns="http://www.w3.org/2000/svg">
<path d="M18.5904 7.64488L18.2304 6.70488L20.0904 6.00488C19.1704 3.88488 17.5304 2.18488 15.4704 1.14488L14.6704 2.92488L13.7504 2.50488L14.5504 0.704883C13.4304 0.264883 12.2104 0.00488281 10.9304 0.00488281C9.87042 0.00488281 8.85042 0.224883 7.89042 0.504883L8.57042 2.34488L7.63042 2.70488L6.93042 0.844883C4.81042 1.76488 3.11042 3.40488 2.07042 5.46488L3.85042 6.26488L3.43042 7.18488L1.63042 6.38488C1.19042 7.50488 0.93042 8.72488 0.93042 10.0049C0.93042 11.0649 1.15042 12.0849 1.43042 13.0449L3.27042 12.3649L3.63042 13.3049L1.77042 14.0049C2.69042 16.1249 4.33042 17.8249 6.39042 18.8649L7.19042 17.0849L8.11042 17.5049L7.31042 19.3049C8.43042 19.7449 9.65042 20.0049 10.9304 20.0049C11.9904 20.0049 13.0104 19.7849 13.9704 19.5049L13.2904 17.6649L14.2304 17.3049L14.9304 19.1649C17.0504 18.2449 18.7504 16.6049 19.7904 14.5449L18.0104 13.7449L18.4304 12.8249L20.2304 13.6249C20.6704 12.5049 20.9304 11.2849 20.9304 10.0049C20.9304 8.94488 20.7104 7.92488 20.4304 6.96488L18.5904 7.64488ZM13.2304 15.5449C10.1704 16.8049 6.65042 15.3649 5.39042 12.3049C4.13042 9.24488 5.57042 5.72488 8.63042 4.46488C11.6904 3.20488 15.2104 4.64488 16.4704 7.70488C17.7504 10.7649 16.2904 14.2849 13.2304 15.5449Z" fill="white"/>
</svg>
